<svg width="20" height="20" viewBox="0 0 20 20" fill="none" xmlns="http://www.w3.org/2000/svg">
<path d="M20 10.2223C20 9.40006 19.9319 8.80006 19.7846 8.17784H10.2041V11.8889H15.8276C15.7143 12.8112 15.102 14.2 13.7415 15.1333L13.7224 15.2576L16.7516 17.5573L16.9614 17.5778C18.8888 15.8334 20 13.2667 20 10.2223Z" fill="#4285F4"/>
<path d="M10.204 19.9999C12.9591 19.9999 15.272 19.111 16.9614 17.5777L13.7414 15.1332C12.8798 15.7221 11.7233 16.1332 10.204 16.1332C7.50564 16.1332 5.21542 14.3888 4.39901 11.9777L4.27935 11.9877L1.12957 14.3766L1.08838 14.4888C2.76636 17.7554 6.21308 19.9999 10.204 19.9999Z" fill="#34A853"/>
<path d="M4.39904 11.978C4.18363 11.3558 4.05896 10.6891 4.05896 10.0003C4.05896 9.31133 4.18363 8.64469 4.38771 8.02248L4.382 7.88996L1.19275 5.4627L1.08841 5.51134C0.396829 6.86691 0 8.38916 0 10.0003C0 11.6114 0.396829 13.1335 1.08841 14.4891L4.39904 11.978Z" fill="#FBBC05"/>
<path d="M10.2041 3.86663C12.1202 3.86663 13.4127 4.67774 14.1496 5.35556L17.0294 2.6C15.2608 0.988891 12.9592 0 10.2041 0C6.21314 0 2.76642 2.24442 1.08844 5.51106L4.38774 8.0222C5.21548 5.6111 7.50571 3.86663 10.2041 3.86663Z" fill="#EB4335"/>
</svg>
