<svg width="91" height="14" viewBox="0 0 91 14" fill="none" xmlns="http://www.w3.org/2000/svg">
<path d="M8.31605 0.492132C8.1655 0.191385 7.84735 0 7.49796 0C7.14857 0 6.83326 0.191385 6.67987 0.492132L4.85336 4.10931L0.774248 4.68893C0.433375 4.73814 0.149315 4.9678 0.0442125 5.28222C-0.0608899 5.59664 0.0243281 5.94387 0.26862 6.17626L3.22853 8.99509L2.52974 12.9786C2.47293 13.3067 2.61496 13.6403 2.89618 13.8344C3.1774 14.0285 3.54952 14.0531 3.8563 13.8973L7.5008 12.0244L11.1453 13.8973C11.4521 14.0531 11.8242 14.0312 12.1054 13.8344C12.3866 13.6375 12.5287 13.3067 12.4719 12.9786L11.7702 8.99509L14.7301 6.17626C14.9744 5.94387 15.0625 5.59664 14.9545 5.28222C14.8466 4.9678 14.5654 4.73814 14.2245 4.68893L10.1426 4.10931L8.31605 0.492132Z" fill="url(#paint0_linear_1_595)"/>
<path d="M27.3161 0.492132C27.1655 0.191385 26.8474 0 26.498 0C26.1486 0 25.8333 0.191385 25.6799 0.492132L23.8534 4.10931L19.7742 4.68893C19.4334 4.73814 19.1493 4.9678 19.0442 5.28222C18.9391 5.59664 19.0243 5.94387 19.2686 6.17626L22.2285 8.99509L21.5297 12.9786C21.4729 13.3067 21.615 13.6403 21.8962 13.8344C22.1774 14.0285 22.5495 14.0531 22.8563 13.8973L26.5008 12.0244L30.1453 13.8973C30.4521 14.0531 30.8242 14.0312 31.1054 13.8344C31.3866 13.6375 31.5287 13.3067 31.4719 12.9786L30.7702 8.99509L33.7301 6.17626C33.9744 5.94387 34.0625 5.59664 33.9545 5.28222C33.8466 4.9678 33.5654 4.73814 33.2245 4.68893L29.1426 4.10931L27.3161 0.492132Z" fill="url(#paint1_linear_1_595)"/>
<path d="M46.3161 0.492132C46.1655 0.191385 45.8474 0 45.498 0C45.1486 0 44.8333 0.191385 44.6799 0.492132L42.8534 4.10931L38.7742 4.68893C38.4334 4.73814 38.1493 4.9678 38.0442 5.28222C37.9391 5.59664 38.0243 5.94387 38.2686 6.17626L41.2285 8.99509L40.5297 12.9786C40.4729 13.3067 40.615 13.6403 40.8962 13.8344C41.1774 14.0285 41.5495 14.0531 41.8563 13.8973L45.5008 12.0244L49.1453 13.8973C49.4521 14.0531 49.8242 14.0312 50.1054 13.8344C50.3866 13.6375 50.5287 13.3067 50.4719 12.9786L49.7702 8.99509L52.7301 6.17626C52.9744 5.94387 53.0625 5.59664 52.9545 5.28222C52.8466 4.9678 52.5654 4.73814 52.2245 4.68893L48.1426 4.10931L46.3161 0.492132Z" fill="url(#paint2_linear_1_595)"/>
<path d="M65.3161 0.492132C65.1655 0.191385 64.8474 0 64.498 0C64.1486 0 63.8333 0.191385 63.6799 0.492132L61.8534 4.10931L57.7742 4.68893C57.4334 4.73814 57.1493 4.9678 57.0442 5.28222C56.9391 5.59664 57.0243 5.94387 57.2686 6.17626L60.2285 8.99509L59.5297 12.9786C59.4729 13.3067 59.615 13.6403 59.8962 13.8344C60.1774 14.0285 60.5495 14.0531 60.8563 13.8973L64.5008 12.0244L68.1453 13.8973C68.4521 14.0531 68.8242 14.0312 69.1054 13.8344C69.3866 13.6375 69.5287 13.3067 69.4719 12.9786L68.7702 8.99509L71.7301 6.17626C71.9744 5.94387 72.0625 5.59664 71.9545 5.28222C71.8466 4.9678 71.5654 4.73814 71.2245 4.68893L67.1426 4.10931L65.3161 0.492132Z" fill="url(#paint3_linear_1_595)"/>
<path d="M84.3161 0.492132C84.1655 0.191385 83.8474 0 83.498 0C83.1486 0 82.8333 0.191385 82.6799 0.492132L80.8534 4.10931L76.7742 4.68893C76.4334 4.73814 76.1493 4.9678 76.0442 5.28222C75.9391 5.59664 76.0243 5.94387 76.2686 6.17626L79.2285 8.99509L78.5297 12.9786C78.4729 13.3067 78.615 13.6403 78.8962 13.8344C79.1774 14.0285 79.5495 14.0531 79.8563 13.8973L83.5008 12.0244L87.1453 13.8973C87.4521 14.0531 87.8242 14.0312 88.1054 13.8344C88.3866 13.6375 88.5287 13.3067 88.4719 12.9786L87.7702 8.99509L90.7301 6.17626C90.9744 5.94387 91.0625 5.59664 90.9545 5.28222C90.8466 4.9678 90.5654 4.73814 90.2245 4.68893L86.1426 4.10931L84.3161 0.492132Z" fill="url(#paint4_linear_1_595)"/>
<defs>
<linearGradient id="paint0_linear_1_595" x1="7.5" y1="0" x2="7.5" y2="14" gradientUnits="userSpaceOnUse">
<stop stop-color="#FDE7AF"/>
<stop offset="1" stop-color="#F9B91B"/>
</linearGradient>
<linearGradient id="paint1_linear_1_595" x1="26.5" y1="0" x2="26.5" y2="14" gradientUnits="userSpaceOnUse">
<stop stop-color="#FDE7AF"/>
<stop offset="1" stop-color="#F9B91B"/>
</linearGradient>
<linearGradient id="paint2_linear_1_595" x1="45.5" y1="0" x2="45.5" y2="14" gradientUnits="userSpaceOnUse">
<stop stop-color="#FDE7AF"/>
<stop offset="1" stop-color="#F9B91B"/>
</linearGradient>
<linearGradient id="paint3_linear_1_595" x1="64.5" y1="0" x2="64.5" y2="14" gradientUnits="userSpaceOnUse">
<stop stop-color="#FDE7AF"/>
<stop offset="1" stop-color="#F9B91B"/>
</linearGradient>
<linearGradient id="paint4_linear_1_595" x1="83.5" y1="0" x2="83.5" y2="14" gradientUnits="userSpaceOnUse">
<stop stop-color="#FDE7AF"/>
<stop offset="1" stop-color="#F9B91B"/>
</linearGradient>
</defs>
</svg>
